<svg viewBox="0 0 212 45" author="Hbat(PHHN)" xmlns="http://www.w3.org/2000/svg">
	<path d="m 11.348656,3.4951459 c 0,-0.097435 -0.07384,-0.1761537 -0.16523,-0.1761537 -0.09139,0 -0.165231,0.078719 -0.165231,0.1761537 v 0.7926926 h -0.743539 c -0.09139,0 -0.16523,0.078719 -0.16523,0.1761537 0,0.097435 0.07384,0.1761537 0.16523,0.1761537 h 0.743539 v 0.7926926 c 0,0.097435 0.07384,0.1761537 0.165231,0.1761537 0.09139,0 0.16523,-0.078719 0.16523,-0.1761537 V 4.6401459 h 0.743539 c 0.09139,0 0.165231,-0.078719 0.165231,-0.1761537 0,-0.097435 -0.07384,-0.1761537 -0.165231,-0.1761537 h -0.743539 z" style="fill:#ffffff;fill-opacity:1;stroke:#ffffff;stroke-width:0.1;stroke-dasharray:none;stroke-opacity:1" />
	<path d="m 1.0837384,14.050392 c 0,-0.0737 -0.055655,-0.133231 -0.1245379,-0.133231 -0.068883,0 -0.1245387,0.05954 -0.1245387,0.133231 v 0.599539 H 0.2742384 c -0.068883,0 -0.1245379,0.05954 -0.1245379,0.13323 0,0.0737 0.055655,0.133231 0.1245379,0.133231 h 0.5604234 v 0.599539 c 0,0.0737 0.055655,0.13323 0.1245387,0.13323 0.068883,0 0.1245379,-0.05954 0.1245379,-0.13323 v -0.599539 h 0.5604234 c 0.068883,0 0.1245387,-0.05954 0.1245387,-0.133231 0,-0.07369 -0.055655,-0.13323 -0.1245387,-0.13323 H 1.0837384 Z" style="fill:#ffffff;fill-opacity:1;stroke:#ffffff;stroke-width:0.0999996;stroke-dasharray:none;stroke-opacity:1" />
	<path d="m 47.747908,41.48153 c 0,-0.05421 -0.04087,-0.098 -0.09146,-0.098 -0.05059,0 -0.09146,0.04379 -0.09146,0.098 v 0.441 h -0.411577 c -0.05059,0 -0.09146,0.0438 -0.09146,0.098 0,0.05421 0.04087,0.098 0.09146,0.098 h 0.411577 v 0.441001 c 0,0.05421 0.04088,0.098 0.09146,0.098 0.05059,0 0.09146,-0.0438 0.09146,-0.098 V 42.11853 h 0.411577 c 0.05059,0 0.09146,-0.0438 0.09146,-0.098 0,-0.0542 -0.04088,-0.098 -0.09146,-0.098 h -0.411577 z" style="fill:#ffffff;fill-opacity:1;stroke:#ffffff;stroke-width:0.0999994;stroke-dasharray:none;stroke-opacity:1" />
	<path d="m 69.812214,5.976514 c 0,-0.073698 -0.05565,-0.1332308 -0.124537,-0.1332308 -0.06889,0 -0.124537,0.059532 -0.124537,0.1332308 v 0.5995382 h -0.560426 c -0.06889,0 -0.124537,0.059546 -0.124537,0.1332307 0,0.073698 0.05565,0.1332307 0.124537,0.1332307 h 0.560426 v 0.5995396 c 0,0.073698 0.05566,0.1332307 0.124537,0.1332307 0.06889,0 0.124537,-0.059546 0.124537,-0.1332307 V 6.8425136 h 0.560426 c 0.06889,0 0.124537,-0.059546 0.124537,-0.1332307 0,-0.073685 -0.05566,-0.1332307 -0.124537,-0.1332307 h -0.560426 z" style="fill:#ffffff;fill-opacity:1;stroke:#ffffff;stroke-width:0.0999994;stroke-dasharray:none;stroke-opacity:1" />
	<path d="m 104.74761,42.981042 c 0,-0.0737 -0.0556,-0.133231 -0.12454,-0.133231 -0.0689,0 -0.12454,0.05953 -0.12454,0.133231 v 0.599538 h -0.56042 c -0.0689,0 -0.12454,0.05955 -0.12454,0.133231 0,0.0737 0.0556,0.133231 0.12454,0.133231 h 0.56042 v 0.599539 c 0,0.0737 0.0557,0.133231 0.12454,0.133231 0.0689,0 0.12454,-0.05955 0.12454,-0.133231 v -0.599539 h 0.56043 c 0.0689,0 0.12453,-0.05955 0.12453,-0.133231 0,-0.07368 -0.0557,-0.133231 -0.12453,-0.133231 h -0.56043 z" style="fill:#ffffff;fill-opacity:1;stroke:#ffffff;stroke-width:0.0999994;stroke-dasharray:none;stroke-opacity:1" />
	<path d="m 119.86412,2.481817 c 0,-0.093189 -0.0703,-0.1684617 -0.15754,-0.1684617 -0.0872,0 -0.15754,0.075272 -0.15754,0.1684617 v 0.7580761 h -0.70892 c -0.0872,0 -0.15754,0.075297 -0.15754,0.1684618 0,0.093189 0.0703,0.1684618 0.15754,0.1684618 h 0.70892 v 0.7580774 c 0,0.093189 0.0704,0.1684618 0.15754,0.1684618 0.0871,0 0.15754,-0.075297 0.15754,-0.1684618 V 3.5768167 h 0.70893 c 0.0872,0 0.15753,-0.075297 0.15753,-0.1684618 0,-0.093164 -0.0705,-0.1684618 -0.15753,-0.1684618 h -0.70893 z" style="fill:#ffffff;fill-opacity:1;stroke:#ffffff;stroke-width:0.0999995;stroke-dasharray:none;stroke-opacity:1" />
	<path d="m 125.27494,39.518932 c 0,-0.05312 -0.0418,-0.09602 -0.0937,-0.09602 -0.0519,0 -0.0937,0.0429 -0.0937,0.09602 v 0.432102 h -0.42162 c -0.0519,0 -0.0937,0.04292 -0.0937,0.09602 0,0.05312 0.0418,0.09602 0.0937,0.09602 h 0.42162 v 0.432102 c 0,0.05312 0.0419,0.09602 0.0937,0.09602 0.0518,0 0.0937,-0.04292 0.0937,-0.09602 V 40.14308 h 0.42162 c 0.0519,0 0.0937,-0.04292 0.0937,-0.09602 0,-0.0531 -0.0419,-0.09602 -0.0937,-0.09602 h -0.42162 z" style="fill:#ffffff;fill-opacity:1;stroke:#ffffff;stroke-width:0.0999997;stroke-dasharray:none;stroke-opacity:1" />
	<path d="m 129.20623,5.4729072 c 0,-0.054769 -0.042,-0.099008 -0.0942,-0.099008 -0.0521,0 -0.0942,0.044238 -0.0942,0.099008 v 0.4455356 h -0.42373 c -0.0521,0 -0.0942,0.044255 -0.0942,0.099008 0,0.054769 0.042,0.099008 0.0942,0.099008 h 0.42373 V 6.561995 c 0,0.054769 0.0421,0.099008 0.0942,0.099008 0.0521,0 0.0942,-0.044255 0.0942,-0.099008 V 6.1164593 h 0.42373 c 0.0521,0 0.0942,-0.044255 0.0942,-0.099008 0,-0.054752 -0.0421,-0.099008 -0.0942,-0.099008 h -0.42373 z" style="fill:#ffffff;fill-opacity:1;stroke:#ffffff;stroke-width:0.0999997;stroke-dasharray:none;stroke-opacity:1" />
	<path d="m 162.64661,39.085527 c 0,-0.06942 -0.0555,-0.12549 -0.12438,-0.12549 -0.0689,0 -0.12439,0.05607 -0.12439,0.12549 v 0.564701 h -0.55975 c -0.0688,0 -0.12439,0.05609 -0.12439,0.12549 0,0.06942 0.0555,0.12549 0.12439,0.12549 h 0.55975 v 0.564702 c 0,0.06942 0.0556,0.12549 0.12439,0.12549 0.0688,0 0.12438,-0.05609 0.12438,-0.12549 v -0.564702 h 0.55976 c 0.0688,0 0.12438,-0.05609 0.12438,-0.12549 0,-0.0694 -0.0557,-0.12549 -0.12438,-0.12549 h -0.55976 z" style="fill:#ffffff;fill-opacity:1;stroke:#ffffff;stroke-width:0.0999994;stroke-dasharray:none;stroke-opacity:1" />
	<path d="m 182.13912,43.50075 c 0,-0.05381 -0.0412,-0.09727 -0.0924,-0.09727 -0.0512,0 -0.0924,0.04346 -0.0924,0.09727 v 0.437722 h -0.41591 c -0.0512,0 -0.0924,0.04348 -0.0924,0.09727 0,0.05381 0.0412,0.09727 0.0924,0.09727 h 0.41591 v 0.437723 c 0,0.05381 0.0413,0.09727 0.0924,0.09727 0.0511,0 0.0924,-0.04348 0.0924,-0.09727 v -0.437723 h 0.41592 c 0.0512,0 0.0924,-0.04348 0.0924,-0.09727 0,-0.05379 -0.0414,-0.09727 -0.0924,-0.09727 h -0.41592 z" style="fill:#ffffff;fill-opacity:1;stroke:#ffffff;stroke-width:0.0999993;stroke-dasharray:none;stroke-opacity:1" />
	<path d="m 193.56379,3.0281959 c 0,-0.07446 -0.0548,-0.1346033 -0.12281,-0.1346033 -0.068,0 -0.12282,0.060142 -0.12282,0.1346033 v 0.6057126 h -0.55265 c -0.068,0 -0.12281,0.060166 -0.12281,0.1346033 0,0.07446 0.0548,0.1346033 0.12281,0.1346033 h 0.55265 v 0.6057133 c 0,0.07446 0.0549,0.1346034 0.12282,0.1346034 0.0679,0 0.12281,-0.060166 0.12281,-0.1346034 V 3.9031151 h 0.55266 c 0.068,0 0.1228,-0.060166 0.1228,-0.1346033 0,-0.074436 -0.055,-0.1346033 -0.1228,-0.1346033 h -0.55266 z" style="fill:#ffffff;fill-opacity:1;stroke:#ffffff;stroke-width:0.0999994;stroke-dasharray:none;stroke-opacity:1" />
	<path d="m 211.18645,33.987183 c 0,-0.07451 -0.0547,-0.134698 -0.12255,-0.134698 -0.0678,0 -0.12254,0.06018 -0.12254,0.134698 v 0.606139 h -0.55146 c -0.0678,0 -0.12255,0.06021 -0.12255,0.134698 0,0.07451 0.0547,0.134698 0.12255,0.134698 h 0.55146 v 0.60614 c 0,0.07451 0.0548,0.134698 0.12254,0.134698 0.0678,0 0.12255,-0.06021 0.12255,-0.134698 v -0.60614 h 0.55147 c 0.0678,0 0.12254,-0.06021 0.12254,-0.134698 0,-0.07449 -0.0548,-0.134698 -0.12254,-0.134698 h -0.55147 z" style="fill:#ffffff;fill-opacity:1;stroke:#ffffff;stroke-width:0.0999992;stroke-dasharray:none;stroke-opacity:1" />
	<path d="m 14.891793,40.023757 c 0,-0.0737 -0.05565,-0.133231 -0.124537,-0.133231 -0.06888,0 -0.124539,0.05954 -0.124539,0.133231 v 0.599539 h -0.560424 c -0.06888,0 -0.124537,0.05954 -0.124537,0.13323 0,0.0737 0.05565,0.133231 0.124537,0.133231 h 0.560424 v 0.599539 c 0,0.0737 0.05565,0.13323 0.124539,0.13323 0.06888,0 0.124537,-0.05954 0.124537,-0.13323 v -0.599539 h 0.560424 c 0.06888,0 0.124539,-0.05954 0.124539,-0.133231 0,-0.07369 -0.05565,-0.13323 -0.124539,-0.13323 h -0.560424 z" style="fill:#475ab9;fill-opacity:1;stroke:#475ab9;stroke-width:0.0999996;stroke-dasharray:none;stroke-opacity:1" />
	<path d="m 39.429284,3.5384689 c 0,-0.051287 -0.03946,-0.092714 -0.08832,-0.092714 -0.04885,0 -0.08832,0.041433 -0.08832,0.092714 v 0.417214 H 38.85521 c -0.04885,0 -0.08832,0.041433 -0.08832,0.092714 0,0.051287 0.03947,0.092714 0.08832,0.092714 h 0.397437 v 0.4172139 c 0,0.051287 0.03946,0.092714 0.08832,0.092714 0.04885,0 0.08832,-0.041433 0.08832,-0.092714 v -0.417214 h 0.397437 c 0.04885,0 0.08832,-0.041433 0.08832,-0.092714 0,-0.05128 -0.03946,-0.092714 -0.08832,-0.092714 h -0.397437 z" style="fill:#475ab9;fill-opacity:1;stroke:#475ab9;stroke-width:0.0999994;stroke-dasharray:none;stroke-opacity:1" />
	<path d="m 74.063437,36.032954 c 0,-0.07098 -0.05318,-0.12832 -0.119012,-0.12832 -0.06582,0 -0.119014,0.05734 -0.119014,0.12832 v 0.577439 h -0.535562 c -0.06582,0 -0.119012,0.05734 -0.119012,0.128319 0,0.07098 0.05318,0.12832 0.119012,0.12832 h 0.535562 v 0.577439 c 0,0.07098 0.05318,0.128319 0.119014,0.128319 0.06582,0 0.119012,-0.05735 0.119012,-0.128319 v -0.577439 h 0.535561 c 0.06582,0 0.119014,-0.05735 0.119014,-0.12832 0,-0.07097 -0.05318,-0.128319 -0.119014,-0.128319 h -0.535561 z" style="fill:#475ab9;fill-opacity:1;stroke:#475ab9;stroke-width:0.1;stroke-dasharray:none;stroke-opacity:1" />
	<path d="m 81.44966,41.028942 c 0,-0.07064 -0.05318,-0.127706 -0.119012,-0.127706 -0.06582,0 -0.119014,0.05707 -0.119014,0.127706 v 0.574676 h -0.535562 c -0.06582,0 -0.119012,0.05707 -0.119012,0.127705 0,0.07064 0.05318,0.127706 0.119012,0.127706 h 0.535562 v 0.574677 c 0,0.07064 0.05318,0.127705 0.119014,0.127705 0.06582,0 0.119012,-0.05707 0.119012,-0.127705 v -0.574677 h 0.535561 c 0.06582,0 0.119014,-0.05707 0.119014,-0.127706 0,-0.07063 -0.05318,-0.127705 -0.119014,-0.127705 H 81.44966 Z" style="fill:#475ab9;fill-opacity:1;stroke:#475ab9;stroke-width:0.0999998;stroke-dasharray:none;stroke-opacity:1" />
	<path d="m 98.07735,1.01483 c 0,-0.0737 -0.05565,-0.13323103 -0.124537,-0.13323103 -0.06888,0 -0.124539,0.05954 -0.124539,0.13323103 V 1.614369 H 97.26785 c -0.06888,0 -0.124537,0.05954 -0.124537,0.13323 0,0.0737 0.05565,0.133231 0.124537,0.133231 h 0.560424 v 0.599539 c 0,0.0737 0.05565,0.13323 0.124539,0.13323 0.06888,0 0.124537,-0.05954 0.124537,-0.13323 V 1.88083 h 0.560424 c 0.06888,0 0.124539,-0.05954 0.124539,-0.133231 0,-0.07369 -0.05565,-0.13323 -0.124539,-0.13323 H 98.07735 Z" style="fill:#475ab9;fill-opacity:1;stroke:#475ab9;stroke-width:0.0999996;stroke-dasharray:none;stroke-opacity:1" />
	<path d="m 160.02356,0.49412793 c 0,-0.0866044 -0.065,-0.1565588 -0.14542,-0.1565588 -0.0804,0 -0.14541,0.069965 -0.14541,0.1565588 V 1.1986419 h -0.65434 c -0.0805,0 -0.14541,0.069965 -0.14541,0.1565577 0,0.086604 0.065,0.1565588 0.14541,0.1565588 h 0.65434 v 0.704514 c 0,0.086604 0.0649,0.1565576 0.14541,0.1565576 0.0804,0 0.14542,-0.069965 0.14542,-0.1565576 v -0.704514 h 0.65434 c 0.0805,0 0.14541,-0.069965 0.14541,-0.1565588 0,-0.086593 -0.0649,-0.1565577 -0.14541,-0.1565577 h -0.65434 z" style="fill:#475ab9;fill-opacity:1;stroke:#475ab9;stroke-width:0.0999996;stroke-dasharray:none;stroke-opacity:1" />
	<path d="m 174.15503,10.569901 c 0,-0.09003 -0.0697,-0.162749 -0.1558,-0.162749 -0.0862,0 -0.15579,0.07273 -0.15579,0.162749 v 0.732369 h -0.70106 c -0.0862,0 -0.1558,0.07273 -0.1558,0.162747 0,0.09003 0.0697,0.162749 0.1558,0.162749 h 0.70106 v 0.732369 c 0,0.09003 0.0696,0.162748 0.15579,0.162748 0.0862,0 0.1558,-0.07273 0.1558,-0.162748 v -0.732369 h 0.70106 c 0.0862,0 0.1558,-0.07273 0.1558,-0.162749 0,-0.09002 -0.0696,-0.162747 -0.1558,-0.162747 h -0.70106 z" style="fill:#475ab9;fill-opacity:1;stroke:#475ab9;stroke-width:0.0999996;stroke-dasharray:none;stroke-opacity:1" />
</svg>
